<svg width="851" height="70" viewBox="0 0 851 70" fill="none" xmlns="http://www.w3.org/2000/svg">
<path d="M0.799988 2.1936H849.8" stroke="#4FADAC" stroke-miterlimit="10"/>
<path d="M2.5 3.89365C3.43888 3.89365 4.20001 3.13254 4.20001 2.19365C4.20001 1.25477 3.43888 0.493652 2.5 0.493652C1.56112 0.493652 0.799988 1.25477 0.799988 2.19365C0.799988 3.13254 1.56112 3.89365 2.5 3.89365Z" fill="#4FADAC"/>
<path d="M849 3.89365C849.939 3.89365 850.7 3.13254 850.7 2.19365C850.7 1.25477 849.939 0.493652 849 0.493652C848.061 0.493652 847.3 1.25477 847.3 2.19365C847.3 3.13254 848.061 3.89365 849 3.89365Z" fill="#4FADAC"/>
<path d="M2.5 36.5936C3.43888 36.5936 4.20001 35.8325 4.20001 34.8936C4.20001 33.9547 3.43888 33.1936 2.5 33.1936C1.56112 33.1936 0.799988 33.9547 0.799988 34.8936C0.799988 35.8325 1.56112 36.5936 2.5 36.5936Z" fill="#4FADAC"/>
<path d="M517.5 36.5936C518.439 36.5936 519.2 35.8325 519.2 34.8936C519.2 33.9547 518.439 33.1936 517.5 33.1936C516.561 33.1936 515.8 33.9547 515.8 34.8936C515.8 35.8325 516.561 36.5936 517.5 36.5936Z" fill="#4FADAC"/>
<path d="M529.2 20.1937C530.139 20.1937 530.9 19.4326 530.9 18.4937C530.9 17.5548 530.139 16.7937 529.2 16.7937C528.261 16.7937 527.5 17.5548 527.5 18.4937C527.5 19.4326 528.261 20.1937 529.2 20.1937Z" fill="#4FADAC"/>
<path d="M849 36.5936C849.939 36.5936 850.7 35.8325 850.7 34.8936C850.7 33.9547 849.939 33.1936 849 33.1936C848.061 33.1936 847.3 33.9547 847.3 34.8936C847.3 35.8325 848.061 36.5936 849 36.5936Z" fill="#4FADAC"/>
<path d="M18.8 18.4937H511.3L536.7 34.8937H849" stroke="#4FADAC" stroke-miterlimit="10"/>
<path d="M849 51.2937H356.5L331.1 67.6937H12.5" stroke="#4FADAC" stroke-miterlimit="10"/>
<path d="M18.8 20.1937C19.7389 20.1937 20.5 19.4326 20.5 18.4937C20.5 17.5548 19.7389 16.7937 18.8 16.7937C17.8611 16.7937 17.1 17.5548 17.1 18.4937C17.1 19.4326 17.8611 20.1937 18.8 20.1937Z" fill="#4FADAC"/>
<path d="M849 20.1937C849.939 20.1937 850.7 19.4326 850.7 18.4937C850.7 17.5548 849.939 16.7937 849 16.7937C848.061 16.7937 847.3 17.5548 847.3 18.4937C847.3 19.4326 848.061 20.1937 849 20.1937Z" fill="#4FADAC"/>
<path d="M366.3 69.3937C367.239 69.3937 368 68.6325 368 67.6936C368 66.7548 367.239 65.9937 366.3 65.9937C365.361 65.9937 364.6 66.7548 364.6 67.6936C364.6 68.6325 365.361 69.3937 366.3 69.3937Z" fill="#4FADAC"/>
<path d="M849 69.3937C849.939 69.3937 850.7 68.6325 850.7 67.6936C850.7 66.7548 849.939 65.9937 849 65.9937C848.061 65.9937 847.3 66.7548 847.3 67.6936C847.3 68.6325 848.061 69.3937 849 69.3937Z" fill="#4FADAC"/>
<path d="M849 52.9938C849.939 52.9938 850.7 52.2326 850.7 51.2938C850.7 50.3549 849.939 49.5938 849 49.5938C848.061 49.5938 847.3 50.3549 847.3 51.2938C847.3 52.2326 848.061 52.9938 849 52.9938Z" fill="#4FADAC"/>
<path d="M518.9 34.8936H2.5" stroke="#4FADAC" stroke-miterlimit="10"/>
<path d="M849.6 18.4937H529.6" stroke="#4FADAC" stroke-miterlimit="10"/>
<path d="M847.8 67.6936H366.3" stroke="#4FADAC" stroke-miterlimit="10"/>
<path d="M25.6 52.9938C26.5389 52.9938 27.3 52.2326 27.3 51.2938C27.3 50.3549 26.5389 49.5938 25.6 49.5938C24.6611 49.5938 23.9 50.3549 23.9 51.2938C23.9 52.2326 24.6611 52.9938 25.6 52.9938Z" fill="#4FADAC"/>
<path d="M12.5 69.3937C13.4389 69.3937 14.2 68.6325 14.2 67.6936C14.2 66.7548 13.4389 65.9937 12.5 65.9937C11.5611 65.9937 10.8 66.7548 10.8 67.6936C10.8 68.6325 11.5611 69.3937 12.5 69.3937Z" fill="#4FADAC"/>
<path d="M331 52.9938C331.939 52.9938 332.7 52.2326 332.7 51.2938C332.7 50.3549 331.939 49.5938 331 49.5938C330.061 49.5938 329.3 50.3549 329.3 51.2938C329.3 52.2326 330.061 52.9938 331 52.9938Z" fill="#4FADAC"/>
<path d="M332.1 51.2937H25.6" stroke="#4FADAC" stroke-miterlimit="10"/>
</svg>
