<svg width="850" height="70" viewBox="0 0 850 70" fill="none" xmlns="http://www.w3.org/2000/svg">
<path d="M849.9 2.1936H0.900024" stroke="#4FADAC" stroke-miterlimit="10"/>
<path d="M848.2 3.89365C849.139 3.89365 849.9 3.13254 849.9 2.19365C849.9 1.25477 849.139 0.493652 848.2 0.493652C847.261 0.493652 846.5 1.25477 846.5 2.19365C846.5 3.13254 847.261 3.89365 848.2 3.89365Z" fill="#4FADAC"/>
<path d="M1.7 3.89365C2.63888 3.89365 3.4 3.13254 3.4 2.19365C3.4 1.25477 2.63888 0.493652 1.7 0.493652C0.761116 0.493652 0 1.25477 0 2.19365C0 3.13254 0.761116 3.89365 1.7 3.89365Z" fill="#4FADAC"/>
<path d="M848.2 36.5936C849.139 36.5936 849.9 35.8325 849.9 34.8936C849.9 33.9547 849.139 33.1936 848.2 33.1936C847.261 33.1936 846.5 33.9547 846.5 34.8936C846.5 35.8325 847.261 36.5936 848.2 36.5936Z" fill="#4FADAC"/>
<path d="M333.1 36.5936C334.039 36.5936 334.8 35.8325 334.8 34.8936C334.8 33.9547 334.039 33.1936 333.1 33.1936C332.161 33.1936 331.4 33.9547 331.4 34.8936C331.4 35.8325 332.161 36.5936 333.1 36.5936Z" fill="#4FADAC"/>
<path d="M321.4 20.1937C322.339 20.1937 323.1 19.4326 323.1 18.4937C323.1 17.5548 322.339 16.7937 321.4 16.7937C320.461 16.7937 319.7 17.5548 319.7 18.4937C319.7 19.4326 320.461 20.1937 321.4 20.1937Z" fill="#4FADAC"/>
<path d="M1.7 36.5936C2.63888 36.5936 3.4 35.8325 3.4 34.8936C3.4 33.9547 2.63888 33.1936 1.7 33.1936C0.761116 33.1936 0 33.9547 0 34.8936C0 35.8325 0.761116 36.5936 1.7 36.5936Z" fill="#4FADAC"/>
<path d="M831.9 18.4937H339.4L314 34.8937H1.70001" stroke="#4FADAC" stroke-miterlimit="10"/>
<path d="M1.70001 51.2937H494.2L519.6 67.6937H838.2" stroke="#4FADAC" stroke-miterlimit="10"/>
<path d="M831.8 20.1937C832.739 20.1937 833.5 19.4326 833.5 18.4937C833.5 17.5548 832.739 16.7937 831.8 16.7937C830.861 16.7937 830.1 17.5548 830.1 18.4937C830.1 19.4326 830.861 20.1937 831.8 20.1937Z" fill="#4FADAC"/>
<path d="M1.7 20.1937C2.63888 20.1937 3.4 19.4326 3.4 18.4937C3.4 17.5548 2.63888 16.7937 1.7 16.7937C0.761116 16.7937 0 17.5548 0 18.4937C0 19.4326 0.761116 20.1937 1.7 20.1937Z" fill="#4FADAC"/>
<path d="M484.3 69.3937C485.239 69.3937 486 68.6325 486 67.6936C486 66.7548 485.239 65.9937 484.3 65.9937C483.361 65.9937 482.6 66.7548 482.6 67.6936C482.6 68.6325 483.361 69.3937 484.3 69.3937Z" fill="#4FADAC"/>
<path d="M1.7 69.3937C2.63888 69.3937 3.4 68.6325 3.4 67.6936C3.4 66.7548 2.63888 65.9937 1.7 65.9937C0.761116 65.9937 0 66.7548 0 67.6936C0 68.6325 0.761116 69.3937 1.7 69.3937Z" fill="#4FADAC"/>
<path d="M1.7 52.9938C2.63888 52.9938 3.4 52.2326 3.4 51.2938C3.4 50.3549 2.63888 49.5938 1.7 49.5938C0.761116 49.5938 0 50.3549 0 51.2938C0 52.2326 0.761116 52.9938 1.7 52.9938Z" fill="#4FADAC"/>
<path d="M331.8 34.8936H848.2" stroke="#4FADAC" stroke-miterlimit="10"/>
<path d="M1.09998 18.4937H321.1" stroke="#4FADAC" stroke-miterlimit="10"/>
<path d="M2.79999 67.6936H484.3" stroke="#4FADAC" stroke-miterlimit="10"/>
<path d="M825 52.9938C825.939 52.9938 826.7 52.2326 826.7 51.2938C826.7 50.3549 825.939 49.5938 825 49.5938C824.061 49.5938 823.3 50.3549 823.3 51.2938C823.3 52.2326 824.061 52.9938 825 52.9938Z" fill="#4FADAC"/>
<path d="M838.2 69.3937C839.139 69.3937 839.9 68.6325 839.9 67.6936C839.9 66.7548 839.139 65.9937 838.2 65.9937C837.261 65.9937 836.5 66.7548 836.5 67.6936C836.5 68.6325 837.261 69.3937 838.2 69.3937Z" fill="#4FADAC"/>
<path d="M519.6 52.9938C520.539 52.9938 521.3 52.2326 521.3 51.2938C521.3 50.3549 520.539 49.5938 519.6 49.5938C518.661 49.5938 517.9 50.3549 517.9 51.2938C517.9 52.2326 518.661 52.9938 519.6 52.9938Z" fill="#4FADAC"/>
<path d="M518.6 51.2937H825" stroke="#4FADAC" stroke-miterlimit="10"/>
</svg>
