<svg width="303" height="177" viewBox="0 0 303 177" fill="none" xmlns="http://www.w3.org/2000/svg">
<path d="M7.3043 48.6455H14.1043V104.646H7.3043V48.6455ZM93.2668 55.0455V48.6455H128.867V55.0455H114.467V104.646H107.667V55.0455H93.2668Z" fill="#00B0AD"/>
<path d="M163.799 55.0455V48.6455H188.839V55.0455H163.799ZM163.799 77.4455V71.0455H188.039V77.4455H163.799ZM160.039 48.6455H166.839V104.646H160.039V48.6455ZM199.774 87.8455L202.174 81.4455H226.974L229.374 87.8455H199.774ZM214.414 61.2855L204.974 83.5255L204.334 84.9655L196.014 104.646H188.414L214.414 45.8455L240.414 104.646H232.814L224.654 85.4455L224.014 83.8455L214.414 61.2855ZM289.626 48.6455H296.426V107.446L254.026 62.9655V104.646H247.226V45.8455L289.626 90.3255V48.6455Z" fill="white"/>
<path d="M32.9357 84.7683C32.9357 80.0546 33.9794 75.8796 36.0669 72.2433C38.2217 68.6071 41.1173 65.7452 44.7535 63.6577C48.3898 61.5702 52.4638 60.5265 56.9754 60.5265C61.5544 60.5265 65.6284 61.5702 69.1974 63.6577C72.8336 65.7452 75.6955 68.6071 77.783 72.2433C79.9378 75.8796 81.0152 80.0546 81.0152 84.7683C81.0152 89.4146 79.9378 93.5896 77.783 97.2932C75.6955 100.929 72.8336 103.791 69.1974 105.879C65.6284 107.966 61.5544 109.01 56.9754 109.01C52.4638 109.01 48.3898 107.966 44.7535 105.879C41.1173 103.791 38.2217 100.929 36.0669 97.2932C33.9794 93.5896 32.9357 89.4146 32.9357 84.7683ZM41.1173 84.7683C41.1173 88.0005 41.7906 90.8624 43.1374 93.3539C44.5515 95.8454 46.437 97.8319 48.7938 99.3134C51.218 100.727 53.9452 101.435 56.9754 101.435C60.0057 101.435 62.6992 100.727 65.056 99.3134C67.4802 97.8319 69.3657 95.8454 70.7125 93.3539C72.1266 90.8624 72.8336 88.0005 72.8336 84.7683C72.8336 81.536 72.1266 78.6742 70.7125 76.1826C69.3657 73.6238 67.4802 71.6373 65.056 70.2232C62.6992 68.8091 60.0057 68.102 56.9754 68.102C53.9452 68.102 51.218 68.8091 48.7938 70.2232C46.437 71.6373 44.5515 73.6238 43.1374 76.1826C41.7906 78.6742 41.1173 81.536 41.1173 84.7683Z" fill="#00B0AD"/>
<path d="M31.6577 59.1739C35.9334 55.9433 41.6343 49.4823 56.5992 49.4823C71.5641 49.4823 79.4028 58.4815 80.1155 59.1739" stroke="#00B0AD" stroke-width="3" stroke-linecap="round"/>
<path d="M23.5791 52.7127C29.1375 48.4054 36.5487 39.7906 56.003 39.7906C75.4574 39.7906 85.6478 51.7896 86.5742 52.7127" stroke="#00B0AD" stroke-width="3" stroke-linecap="round"/>
</svg>
