<svg width="195" height="72" viewBox="0 0 195 72" fill="none" xmlns="http://www.w3.org/2000/svg">
<path d="M13.3706 27.8401C10.1301 27.8401 7.49237 30.4033 7.49237 33.5523C7.49237 36.7014 10.1301 39.2645 13.3706 39.2645C16.6112 39.2645 19.2489 36.7014 19.2489 33.5523C19.2489 30.4033 16.6112 27.8401 13.3706 27.8401Z" fill="white"/>
<path d="M9.75297 71.7436H16.9878C21.5472 71.7436 26.3704 67.2763 26.3704 62.626V21.9447C26.3704 17.2944 21.5095 12.8271 16.9878 12.8271H9.75297C5.19355 12.8271 0.370361 17.2944 0.370361 21.9447V62.626C0.370361 67.2763 5.19355 71.7436 9.75297 71.7436ZM18.495 66.1412H8.20804C7.79355 66.1412 7.4921 65.8117 7.4921 65.4455C7.4921 65.0427 7.83123 64.7498 8.20804 64.7498H18.495C18.9095 64.7498 19.2109 65.0793 19.2109 65.4455C19.2109 65.8117 18.9095 66.1412 18.495 66.1412ZM16.6863 48.1258C15.3675 48.1258 14.2747 47.0639 14.2747 45.7823C14.2747 44.5007 15.3675 43.4388 16.6863 43.4388C18.0051 43.4388 19.0979 44.5007 19.0979 45.7823C19.0979 47.1005 18.0051 48.1258 16.6863 48.1258ZM19.0979 52.6662C19.0979 53.9478 18.0051 55.0097 16.6863 55.0097C15.3675 55.0097 14.2747 53.9478 14.2747 52.6662C14.2747 51.3847 15.3675 50.3228 16.6863 50.3228C18.0051 50.3228 19.0979 51.3847 19.0979 52.6662ZM13.3704 40.8756C9.18775 40.8756 5.79645 37.5801 5.79645 33.5156C5.79645 29.4512 9.18775 26.1557 13.3704 26.1557C17.553 26.1557 20.9443 29.4512 20.9443 33.5156C20.9066 37.5801 17.5153 40.8756 13.3704 40.8756ZM16.6863 57.2067C18.0051 57.2067 19.0979 58.2686 19.0979 59.5502C19.0979 60.8318 18.0051 61.8937 16.6863 61.8937C15.3675 61.8937 14.2747 60.8318 14.2747 59.5502C14.2747 58.232 15.3675 57.2067 16.6863 57.2067ZM13.3704 19.1619C14.4631 19.1619 15.3298 20.004 15.3298 21.0659C15.3298 22.1278 14.4631 22.97 13.3704 22.97C12.2776 22.97 11.4109 22.1278 11.4109 21.0659C11.4109 20.004 12.2776 19.1619 13.3704 19.1619ZM10.0167 43.4754C11.3356 43.4754 12.4283 44.5373 12.4283 45.8189C12.4283 47.1005 11.3356 48.1624 10.0167 48.1624C8.6979 48.1624 7.60514 47.1005 7.60514 45.8189C7.60514 44.5007 8.6979 43.4754 10.0167 43.4754ZM10.0167 50.3228C11.3356 50.3228 12.4283 51.3847 12.4283 52.6662C12.4283 53.9478 11.3356 55.0097 10.0167 55.0097C8.6979 55.0097 7.60514 53.9478 7.60514 52.6662C7.60514 51.3847 8.6979 50.3228 10.0167 50.3228ZM10.0167 57.2067C11.3356 57.2067 12.4283 58.2686 12.4283 59.5502C12.4283 60.8318 11.3356 61.8937 10.0167 61.8937C8.6979 61.8937 7.60514 60.8318 7.60514 59.5502C7.60514 58.232 8.6979 57.2067 10.0167 57.2067Z" fill="white"/>
<path d="M5.64571 5.50384C7.6805 3.52653 10.4689 2.39141 13.3704 2.39141C16.2718 2.39141 19.0225 3.48991 21.095 5.50384C21.2457 5.65031 21.4718 5.72354 21.6979 5.72354C21.924 5.72354 22.1501 5.65031 22.3008 5.50384C22.4515 5.35737 22.5646 5.13767 22.5646 4.91797C22.5646 4.69827 22.4892 4.47857 22.3008 4.3321C19.8892 2.02524 16.6863 0.743652 13.3704 0.743652C10.0167 0.743652 6.81383 2.02524 4.4776 4.3321C4.13847 4.66165 4.13847 5.17429 4.4776 5.50384C4.77905 5.79677 5.30658 5.79677 5.64571 5.50384Z" fill="#00AFAC"/>
<path d="M19.2859 8.03029C19.512 8.03029 19.7381 7.95706 19.8888 7.81059C20.0396 7.66412 20.1526 7.44442 20.1526 7.22472C20.1526 7.00502 20.0772 6.78532 19.8888 6.63885C18.1555 4.95448 15.8193 4.00244 13.37 4.00244C10.9207 4.00244 8.58448 4.95448 6.85115 6.63885C6.51202 6.9684 6.51202 7.48104 6.85115 7.81059C7.19028 8.14014 7.71782 8.14014 8.05695 7.81059C9.48883 6.41915 11.4106 5.6502 13.4077 5.6502C15.4048 5.6502 17.3265 6.41915 18.7584 7.81059C18.8714 7.95706 19.0598 8.03029 19.2859 8.03029Z" fill="#00AFAC"/>
<path d="M9.22561 8.94585C9.03721 9.09232 8.96184 9.31202 8.92416 9.53172C8.92416 9.75142 8.99953 9.97112 9.18793 10.1542C9.33866 10.3007 9.56474 10.4105 9.82851 10.3739C10.0546 10.3739 10.2807 10.2641 10.4314 10.081C11.2227 9.31202 12.2778 8.90923 13.4082 8.90923C14.501 8.90923 15.5937 9.34863 16.385 10.081C16.7242 10.4105 17.2517 10.4105 17.5908 10.1176C17.93 9.78804 17.93 9.2754 17.6285 8.94585C16.5358 7.88396 15.0285 7.26147 13.4836 7.26147C11.9387 7.26147 10.4314 7.84734 9.33866 8.94585H9.22561Z" fill="#00AFAC"/>
<path d="M42.0569 18.1437H43.5869V30.7437H42.0569V18.1437ZM42.9029 19.5837V18.1437H45.4769C46.2929 18.1437 47.0189 18.2997 47.6549 18.6117C48.3029 18.9117 48.8129 19.3437 49.1849 19.9077C49.5689 20.4717 49.7609 21.1437 49.7609 21.9237C49.7609 22.6917 49.5689 23.3637 49.1849 23.9397C48.8129 24.5037 48.3029 24.9417 47.6549 25.2537C47.0189 25.5537 46.2929 25.7037 45.4769 25.7037H42.9029V24.2637H45.4769C46.2929 24.2637 46.9529 24.0657 47.4569 23.6697C47.9729 23.2737 48.2309 22.6917 48.2309 21.9237C48.2309 21.1437 47.9729 20.5617 47.4569 20.1777C46.9529 19.7817 46.2929 19.5837 45.4769 19.5837H42.9029ZM52.8183 24.4437C52.8183 25.3917 53.0223 26.2377 53.4303 26.9817C53.8503 27.7257 54.4203 28.3137 55.1403 28.7457C55.8603 29.1777 56.6763 29.3937 57.5883 29.3937C58.5123 29.3937 59.3283 29.1777 60.0363 28.7457C60.7563 28.3137 61.3203 27.7257 61.7283 26.9817C62.1483 26.2377 62.3583 25.3917 62.3583 24.4437C62.3583 23.4957 62.1483 22.6497 61.7283 21.9057C61.3203 21.1617 60.7563 20.5737 60.0363 20.1417C59.3283 19.7097 58.5123 19.4937 57.5883 19.4937C56.6763 19.4937 55.8603 19.7097 55.1403 20.1417C54.4203 20.5737 53.8503 21.1617 53.4303 21.9057C53.0223 22.6497 52.8183 23.4957 52.8183 24.4437ZM51.1983 24.4437C51.1983 23.5197 51.3543 22.6677 51.6663 21.8877C51.9903 21.0957 52.4403 20.4117 53.0163 19.8357C53.5923 19.2477 54.2703 18.7917 55.0503 18.4677C55.8303 18.1317 56.6763 17.9637 57.5883 17.9637C58.5123 17.9637 59.3583 18.1317 60.1263 18.4677C60.9063 18.7917 61.5843 19.2477 62.1603 19.8357C62.7363 20.4117 63.1803 21.0957 63.4923 21.8877C63.8163 22.6677 63.9783 23.5197 63.9783 24.4437C63.9783 25.3557 63.8163 26.2077 63.4923 26.9997C63.1803 27.7917 62.7363 28.4817 62.1603 29.0697C61.5843 29.6457 60.9063 30.1017 60.1263 30.4377C59.3583 30.7617 58.5123 30.9237 57.5883 30.9237C56.6763 30.9237 55.8303 30.7617 55.0503 30.4377C54.2703 30.1017 53.5923 29.6457 53.0163 29.0697C52.4403 28.4817 51.9903 27.7917 51.6663 26.9997C51.3543 26.2077 51.1983 25.3557 51.1983 24.4437ZM66.139 18.1437H67.669V30.7437H66.139V18.1437ZM80.0911 18.1437H81.6211V31.3737L72.0811 21.3657V30.7437H70.5511V17.5137L80.0911 27.5217V18.1437ZM83.2481 19.5837V18.1437H91.2581V19.5837H88.0181V30.7437H86.4881V19.5837H83.2481ZM99.4778 26.9637L100.018 25.5237H105.598L106.138 26.9637H99.4778ZM102.772 20.9877L100.648 25.9917L100.504 26.3157L98.6318 30.7437H96.9218L102.772 17.5137L108.622 30.7437H106.912L105.076 26.4237L104.932 26.0637L102.772 20.9877ZM119.695 18.1437H121.225V31.3737L111.685 21.3657V30.7437H110.155V17.5137L119.695 27.5217V18.1437ZM130.97 18.1437H132.68L128.486 25.3077V30.7437H126.956V25.3257L122.762 18.1437H124.472L127.712 23.9757L130.97 18.1437ZM145.96 27.4137L149.236 18.1437H150.946L145.996 31.3737L142.216 21.5817L138.436 31.3737L133.486 18.1437H135.196L138.544 27.4137L142.216 17.5137L145.96 27.4137ZM153.417 24.6237V23.1837H162.057V24.6237H153.417ZM161.031 18.1437H162.561V30.7437H161.031V18.1437ZM152.571 18.1437H154.101V30.7437H152.571V18.1437ZM166.284 30.7437V29.3037H172.638V30.7437H166.284ZM166.284 19.5837V18.1437H172.638V19.5837H166.284ZM166.284 24.6237V23.1837H172.278V24.6237H166.284ZM165.438 18.1437H166.968V30.7437H165.438V18.1437ZM177.584 24.5337H179.294L183.794 30.7437H181.904L177.584 24.5337ZM175.334 18.1437H176.864V30.7437H175.334V18.1437ZM176.18 19.4937V18.1437H178.754C179.57 18.1437 180.296 18.2997 180.932 18.6117C181.58 18.9117 182.09 19.3437 182.462 19.9077C182.846 20.4717 183.038 21.1437 183.038 21.9237C183.038 22.6917 182.846 23.3637 182.462 23.9397C182.09 24.5037 181.58 24.9417 180.932 25.2537C180.296 25.5537 179.57 25.7037 178.754 25.7037H176.18V24.3537H178.754C179.294 24.3537 179.768 24.2577 180.176 24.0657C180.596 23.8737 180.92 23.5977 181.148 23.2377C181.388 22.8777 181.508 22.4397 181.508 21.9237C181.508 21.4077 181.388 20.9697 181.148 20.6097C180.92 20.2497 180.596 19.9737 180.176 19.7817C179.768 19.5897 179.294 19.4937 178.754 19.4937H176.18ZM186.253 30.7437V29.3037H192.607V30.7437H186.253ZM186.253 19.5837V18.1437H192.607V19.5837H186.253ZM186.253 24.6237V23.1837H192.247V24.6237H186.253ZM185.407 18.1437H186.937V30.7437H185.407V18.1437ZM44.3069 48.5337H46.0169L50.5169 54.7437H48.6269L44.3069 48.5337ZM42.0569 42.1437H43.5869V54.7437H42.0569V42.1437ZM42.9029 43.4937V42.1437H45.4769C46.2929 42.1437 47.0189 42.2997 47.6549 42.6117C48.3029 42.9117 48.8129 43.3437 49.1849 43.9077C49.5689 44.4717 49.7609 45.1437 49.7609 45.9237C49.7609 46.6917 49.5689 47.3637 49.1849 47.9397C48.8129 48.5037 48.3029 48.9417 47.6549 49.2537C47.0189 49.5537 46.2929 49.7037 45.4769 49.7037H42.9029V48.3537H45.4769C46.0169 48.3537 46.4909 48.2577 46.8989 48.0657C47.3189 47.8737 47.6429 47.5977 47.8709 47.2377C48.1109 46.8777 48.2309 46.4397 48.2309 45.9237C48.2309 45.4077 48.1109 44.9697 47.8709 44.6097C47.6429 44.2497 47.3189 43.9737 46.8989 43.7817C46.4909 43.5897 46.0169 43.4937 45.4769 43.4937H42.9029ZM52.9752 54.7437V53.3037H59.3292V54.7437H52.9752ZM52.9752 43.5837V42.1437H59.3292V43.5837H52.9752ZM52.9752 48.6237V47.1837H58.9692V48.6237H52.9752ZM52.1292 42.1437H53.6592V54.7437H52.1292V42.1437ZM63.7717 46.2297L62.8357 54.7437H61.3057L62.8357 41.5137L67.8757 50.6397L72.9157 41.5137L74.4457 54.7437H72.9157L71.9797 46.2297L67.8757 53.5737L63.7717 46.2297ZM77.498 48.4437C77.498 49.3917 77.702 50.2377 78.11 50.9817C78.53 51.7257 79.1 52.3137 79.82 52.7457C80.54 53.1777 81.356 53.3937 82.268 53.3937C83.192 53.3937 84.008 53.1777 84.716 52.7457C85.436 52.3137 86 51.7257 86.408 50.9817C86.828 50.2377 87.038 49.3917 87.038 48.4437C87.038 47.4957 86.828 46.6497 86.408 45.9057C86 45.1617 85.436 44.5737 84.716 44.1417C84.008 43.7097 83.192 43.4937 82.268 43.4937C81.356 43.4937 80.54 43.7097 79.82 44.1417C79.1 44.5737 78.53 45.1617 78.11 45.9057C77.702 46.6497 77.498 47.4957 77.498 48.4437ZM75.878 48.4437C75.878 47.5197 76.034 46.6677 76.346 45.8877C76.67 45.0957 77.12 44.4117 77.696 43.8357C78.272 43.2477 78.95 42.7917 79.73 42.4677C80.51 42.1317 81.356 41.9637 82.268 41.9637C83.192 41.9637 84.038 42.1317 84.806 42.4677C85.586 42.7917 86.264 43.2477 86.84 43.8357C87.416 44.4117 87.86 45.0957 88.172 45.8877C88.496 46.6677 88.658 47.5197 88.658 48.4437C88.658 49.3557 88.496 50.2077 88.172 50.9997C87.86 51.7917 87.416 52.4817 86.84 53.0697C86.264 53.6457 85.586 54.1017 84.806 54.4377C84.038 54.7617 83.192 54.9237 82.268 54.9237C81.356 54.9237 80.51 54.7617 79.73 54.4377C78.95 54.1017 78.272 53.6457 77.696 53.0697C77.12 52.4817 76.67 51.7917 76.346 50.9997C76.034 50.2077 75.878 49.3557 75.878 48.4437ZM89.0137 43.5837V42.1437H97.0237V43.5837H93.7837V54.7437H92.2537V43.5837H89.0137ZM99.4869 54.7437V53.3037H105.841V54.7437H99.4869ZM99.4869 43.5837V42.1437H105.841V43.5837H99.4869ZM99.4869 48.6237V47.1837H105.481V48.6237H99.4869ZM98.6409 42.1437H100.171V54.7437H98.6409V42.1437Z" fill="white"/>
</svg>
